G.I. Joe The Rise Of Cobra 2009 BRRip HINDI [-=BY RAJ=-]





Format                           : Matroska
File size                        : 1.80 GiB
Duration                         : 1h 58mn
Overall bit rate                 : 2 180 Kbps
Encoded date                     : UTC 2011-03-11 07:10:45
Writing application              : mkvmerge v2.2.0 ('Turn It On Again') built on Mar  4 2008 13:20:25
Writing library                  : libebml v0.7.7 + libmatroska v0.8.1

Video
ID                               : 1
Format                           : AVC
Format/Info                      : Advanced Video Codec
Format profile                   : Main@L4.1
Format settings, CABAC           : Yes
Format settings, ReFrames        : 4 frames
Codec ID                         : V_MPEG4/ISO/AVC
Duration                         : 1h 58mn
Bit rate                         : 2 100 Kbps
Width                            : 1 280 pixels
Height                           : 544 pixels
Display aspect ratio             : 2.35:1
Frame rate                       : 23.976 fps
Color space                      : YUV
Chroma subsampling               : 4:2:0
Bit depth                        : 8 bits
Scan type                        : Progressive
Bits/(Pixel*Frame)               : 0.126
Stream size                      : 1.70 GiB (94%)
Writing library                  : x264 core 77 r1281M 39f6499
Encoding settings                : cabac=1 / ref=4 / deblock=1:0:0 / analyse=0x1:0x111 / me=umh / subme=10 / psy=1 / psy_rd=1.0:0.0 / mixed_ref=1 / me_range=16 / chroma_me=1 / trellis=2 / 8x8dct=0 / cqm=0 / deadzone=21,11 / chroma_qp_offset=-2 / threads=3 / slices=3 / nr=0 / decimate=1 / mbaff=0 / constrained_intra=0 / bframes=3 / b_pyramid=0 / b_adapt=2 / b_bias=0 / direct=1 / wpredb=1 / keyint=250 / keyint_min=25 / scenecut=40 / rc_lookahead=50 / rc=2pass / mbtree=1 / bitrate=2100 / ratetol=1.0 / qcomp=0.60 / qpmin=10 / qpmax=51 / qpstep=4 / cplxblur=20.0 / qblur=0.5 / ip_ratio=1.40 / aq=1:1.00 / pulldown=0 / nal_hrd=0

Audio
ID                               : 2
Format                           : MPEG Audio
Format version                   : Version 1
Format profile                   : Layer 3
Mode                             : Joint stereo
Mode extension                   : MS Stereo
Codec ID                         : A_MPEG/L3
Codec ID/Hint                    : MP3
Duration                         : 51mn 12s
Bit rate mode                    : Constant
Bit rate                         : 80.0 Kbps
Channel(s)                       : 2 channels
Sampling rate                    : 32.0 KHz
Compression mode                 : Lossy
Delay relative to video          : 3s 200ms
Stream size                      : 29.3 MiB (2%)
Title                            : HINDI BY RAJ
Writing library                  : LAME3.98r
Encoding settings                : -m j -V 4 -q 2 -lowpass 13.5 -b 80
Language                         : Hindi

